<svg width="1210" height="1900" style="baseline-shift: 0px; clip-rule: nonzero; color: rgb(85, 85, 85); color-interpolation: srgb; color-interpolation-filters: linearrgb; color-rendering: auto; cursor: auto; direction: ltr; fill: rgb(0, 0, 0); fill-opacity: 1; fill-rule: nonzero; font: 400 14px / 20px Georgia, &quot;Times New Roman&quot;, Times, serif; image-rendering: auto; letter-spacing: normal; marker: none; overflow: hidden; paint-order: normal; pointer-events: auto; shape-rendering: auto; stroke: none; stroke-dasharray: none; stroke-dashoffset: 0px; stroke-linecap: butt; stroke-linejoin: miter; stroke-miterlimit: 4; stroke-opacity: 1; stroke-width: 1px; text-anchor: start; text-decoration: none solid rgb(85, 85, 85); text-rendering: auto; visibility: visible; word-spacing: 0px; writing-mode: horizontal-tb;" xmlns="http://www.w3.org/2000/svg" xmlns:xlink="http://www.w3.org/1999/xlink" version="1.1"><g transform="translate(50,50)" style="baseline-shift: 0px; paint-order: normal; text-decoration: none solid rgb(85, 85, 85);"><g class="spTree" style="fill: none; stroke: rgb(0, 0, 0); baseline-shift: 0px; paint-order: normal; text-decoration: none solid rgb(85, 85, 85);"><g transform="translate(50,720)" style="baseline-shift: 0px; paint-order: normal; text-decoration: none solid rgb(85, 85, 85);"><text style="baseline-shift: 0px; display: block; paint-order: normal; text-decoration: none solid rgb(85, 85, 85);">Eumetazoa</text></g><g transform="translate(320,420)" style="baseline-shift: 0px; paint-order: normal; text-decoration: none solid rgb(85, 85, 85);"><text style="baseline-shift: 0px; display: block; paint-order: normal; text-decoration: none solid rgb(85, 85, 85);">Bilateria</text></g><g transform="translate(320,1020)" style="baseline-shift: 0px; paint-order: normal; text-decoration: none solid rgb(85, 85, 85);"><text style="baseline-shift: 0px; display: block; paint-order: normal; text-decoration: none solid rgb(85, 85, 85);">Cnidaria</text></g><g transform="translate(500,145)" style="baseline-shift: 0px; paint-order: normal; text-decoration: none solid rgb(85, 85, 85);"><text style="baseline-shift: 0px; display: block; paint-order: normal; text-decoration: none solid rgb(85, 85, 85);">Deuterostomia</text></g><g transform="translate(500,570)" style="baseline-shift: 0px; paint-order: normal; text-decoration: none solid rgb(85, 85, 85);"><text style="baseline-shift: 0px; display: block; paint-order: normal; text-decoration: none solid rgb(85, 85, 85);">Drosophila_melanogaster</text></g><g transform="translate(580,870)" style="baseline-shift: 0px; paint-order: normal; text-decoration: none solid rgb(85, 85, 85);"><text style="baseline-shift: 0px; display: block; paint-order: normal; text-decoration: none solid rgb(85, 85, 85);">Pocillopora_damicornis</text></g><g transform="translate(580,1220)" style="baseline-shift: 0px; paint-order: normal; text-decoration: none solid rgb(85, 85, 85);"><text style="baseline-shift: 0px; display: block; paint-order: normal; text-decoration: none solid rgb(85, 85, 85);">Nematostella_vectensis</text></g><g transform="translate(680,-5)" style="baseline-shift: 0px; paint-order: normal; text-decoration: none solid rgb(85, 85, 85);"><text style="baseline-shift: 0px; display: block; paint-order: normal; text-decoration: none solid rgb(85, 85, 85);">Strongylocentrotus_purpuratus</text></g><g transform="translate(680,295)" style="baseline-shift: 0px; paint-order: normal; text-decoration: none solid rgb(85, 85, 85);"><text style="baseline-shift: 0px; display: block; paint-order: normal; text-decoration: none solid rgb(85, 85, 85);">Homo_sapiens</text></g><path class="leftLinks" d="M50,725L170,725L170,425L320,425M320,800L320,575" style="baseline-shift: 0px; paint-order: normal; text-decoration: none solid rgb(85, 85, 85);"></path><path class="leftLinks" d="M320,425L350,425L350,150L500,150M500,500L500,300" style="baseline-shift: 0px; paint-order: normal; text-decoration: none solid rgb(85, 85, 85);"></path><path class="leftLinks" d="M320,1025L380,1025L380,875L580,875M580,1125L580,1025" style="baseline-shift: 0px; paint-order: normal; text-decoration: none solid rgb(85, 85, 85);"></path><path class="leftLinks" d="M500,150L530,150L530,0L680,0M680,225L680,150" style="baseline-shift: 0px; paint-order: normal; text-decoration: none solid rgb(85, 85, 85);"></path><path class="rightLinks" d="M50,875L170,875L170,1225L320,1225M320,800L320,1025" style="baseline-shift: 0px; paint-order: normal; text-decoration: none solid rgb(85, 85, 85);"></path><path class="rightLinks" d="M320,575L350,575L350,725L500,725M500,500L500,575" style="baseline-shift: 0px; paint-order: normal; text-decoration: none solid rgb(85, 85, 85);"></path><path class="rightLinks" d="M320,1225L380,1225L380,1400L580,1400M580,1125L580,1225" style="baseline-shift: 0px; paint-order: normal; text-decoration: none solid rgb(85, 85, 85);"></path><path class="rightLinks" d="M500,300L530,300L530,425L680,425M680,225L680,300" style="baseline-shift: 0px; paint-order: normal; text-decoration: none solid rgb(85, 85, 85);"></path><path class="leaves" d="M680,0L770,0L770,150L680,150" style="baseline-shift: 0px; paint-order: normal; text-decoration: none solid rgb(85, 85, 85);"></path><path class="leaves" d="M680,300L770,300L770,425L680,425" style="baseline-shift: 0px; paint-order: normal; text-decoration: none solid rgb(85, 85, 85);"></path><path class="leaves" d="M500,575L770,575L770,725L500,725" style="baseline-shift: 0px; paint-order: normal; text-decoration: none solid rgb(85, 85, 85);"></path><path class="leaves" d="M580,875L770,875L770,1025L580,1025" style="baseline-shift: 0px; paint-order: normal; text-decoration: none solid rgb(85, 85, 85);"></path><path class="leaves" d="M580,1225L770,1225L770,1400L580,1400" style="baseline-shift: 0px; paint-order: normal; text-decoration: none solid rgb(85, 85, 85);"></path></g><g class="gnTree1" style="stroke-width: 2px; cursor: pointer; baseline-shift: 0px; paint-order: normal; text-decoration: none solid rgb(85, 85, 85);"><g class="leaf1" transform="translate(780,1000)" style="baseline-shift: 0px; paint-order: normal; text-decoration: none solid rgb(85, 85, 85);"><text style="fill: rgb(51, 102, 204); baseline-shift: 0px; display: block; paint-order: normal; text-decoration: none solid rgb(85, 85, 85);">Pocillopora_damicornis_A0A3M6TV88_9CNID (Pocillopora_damicornis)</text></g><g class="leaf1" transform="translate(780,975)" style="baseline-shift: 0px; paint-order: normal; text-decoration: none solid rgb(85, 85, 85);"><text style="fill: rgb(51, 102, 204); baseline-shift: 0px; display: block; paint-order: normal; text-decoration: none solid rgb(85, 85, 85);">Pocillopora_damicornis_A0A3M6TPZ0_9CNID (Pocillopora_damicornis)</text></g><g class="leaf1" transform="translate(780,600)" style="baseline-shift: 0px; paint-order: normal; text-decoration: none solid rgb(85, 85, 85);"><text style="fill: rgb(51, 102, 204); baseline-shift: 0px; display: block; paint-order: normal; text-decoration: none solid rgb(85, 85, 85);">Drosophila_melanogaster_Q9V9M6_DROME (Drosophila_melanogaster)</text></g><g class="leaf1" transform="translate(780,950)" style="baseline-shift: 0px; paint-order: normal; text-decoration: none solid rgb(85, 85, 85);"><text style="fill: rgb(51, 102, 204); baseline-shift: 0px; display: block; paint-order: normal; text-decoration: none solid rgb(85, 85, 85);">Pocillopora_damicornis_A0A3M6V5X9_9CNID (Pocillopora_damicornis)</text></g><g class="leaf1" transform="translate(780,1275)" style="baseline-shift: 0px; paint-order: normal; text-decoration: none solid rgb(85, 85, 85);"><text style="fill: rgb(51, 102, 204); baseline-shift: 0px; display: block; paint-order: normal; text-decoration: none solid rgb(85, 85, 85);">Nematostella_vectensis_XP_032239229.1 (Nematostella_vectensis)</text></g><g class="leaf1" transform="translate(780,1300)" style="baseline-shift: 0px; paint-order: normal; text-decoration: none solid rgb(85, 85, 85);"><text style="fill: rgb(51, 102, 204); baseline-shift: 0px; display: block; paint-order: normal; text-decoration: none solid rgb(85, 85, 85);">Nematostella_vectensis_XP_032225881.1 (Nematostella_vectensis)</text></g><g class="leaf1" transform="translate(780,1325)" style="baseline-shift: 0px; paint-order: normal; text-decoration: none solid rgb(85, 85, 85);"><text style="fill: rgb(51, 102, 204); baseline-shift: 0px; display: block; paint-order: normal; text-decoration: none solid rgb(85, 85, 85);">Nematostella_vectensis_XP_032221138.1 (Nematostella_vectensis)</text></g><g class="leaf1" transform="translate(780,1350)" style="baseline-shift: 0px; paint-order: normal; text-decoration: none solid rgb(85, 85, 85);"><text style="fill: rgb(51, 102, 204); baseline-shift: 0px; display: block; paint-order: normal; text-decoration: none solid rgb(85, 85, 85);">Nematostella_vectensis_RRN3 (Nematostella_vectensis)</text></g><g class="leaf1" transform="translate(780,900)" style="baseline-shift: 0px; paint-order: normal; text-decoration: none solid rgb(85, 85, 85);"><text style="fill: rgb(51, 102, 204); baseline-shift: 0px; display: block; paint-order: normal; text-decoration: none solid rgb(85, 85, 85);">Pocillopora_damicornis_A0A3M6TY46_9CNID (Pocillopora_damicornis)</text></g><g class="leaf1" transform="translate(780,125)" style="baseline-shift: 0px; paint-order: normal; text-decoration: none solid rgb(85, 85, 85);"><text style="fill: rgb(51, 102, 204); baseline-shift: 0px; display: block; paint-order: normal; text-decoration: none solid rgb(85, 85, 85);">Strongylocentrotus_purpuratus_W4XX55_STRPU (Strongylocentrotus_purpuratus)</text></g><g class="leaf1" transform="translate(780,100)" style="baseline-shift: 0px; paint-order: normal; text-decoration: none solid rgb(85, 85, 85);"><text style="fill: rgb(51, 102, 204); baseline-shift: 0px; display: block; paint-order: normal; text-decoration: none solid rgb(85, 85, 85);">Strongylocentrotus_purpuratus_W4Y3R2_STRPU (Strongylocentrotus_purpuratus)</text></g><g class="leaf1" transform="translate(780,75)" style="baseline-shift: 0px; paint-order: normal; text-decoration: none solid rgb(85, 85, 85);"><text style="fill: rgb(51, 102, 204); baseline-shift: 0px; display: block; paint-order: normal; text-decoration: none solid rgb(85, 85, 85);">Strongylocentrotus_purpuratus_W4XMK7_STRPU (Strongylocentrotus_purpuratus)</text></g><g class="leaf1" transform="translate(780,375)" style="baseline-shift: 0px; paint-order: normal; text-decoration: none solid rgb(85, 85, 85);"><text style="fill: rgb(51, 102, 204); baseline-shift: 0px; display: block; paint-order: normal; text-decoration: none solid rgb(85, 85, 85);">Homo_sapiens_Q9NYV6_RRN3 (Homo_sapiens)</text></g><g class="leaf1" transform="translate(780,25)" style="baseline-shift: 0px; paint-order: normal; text-decoration: none solid rgb(85, 85, 85);"><text style="fill: rgb(51, 102, 204); baseline-shift: 0px; display: block; paint-order: normal; text-decoration: none solid rgb(85, 85, 85);">Strongylocentrotus_purpuratus_W4Z7T7_STRPU (Strongylocentrotus_purpuratus)</text></g><path class="gnLinks1" d="M50,750L80,850" style="fill: none; stroke: rgb(51, 102, 204); baseline-shift: 0px; paint-order: normal; text-decoration: none solid rgb(85, 85, 85);"></path><path class="gnLinks1" d="M50,750L80,750" style="fill: none; stroke: rgb(51, 102, 204); baseline-shift: 0px; paint-order: normal; text-decoration: none solid rgb(85, 85, 85);"></path><path class="gnLinks1" d="M80,850L295,850L295,1050L320,1050" style="fill: none; stroke: rgb(51, 102, 204); baseline-shift: 0px; paint-order: normal; text-decoration: none solid rgb(85, 85, 85);"></path><path class="gnLinks1" d="M80,850L295,850L295,550L320,550" style="fill: none; stroke: rgb(51, 102, 204); baseline-shift: 0px; paint-order: normal; text-decoration: none solid rgb(85, 85, 85);"></path><path class="gnLinks1" d="M80,750L110,775" style="fill: none; stroke: rgb(51, 102, 204); baseline-shift: 0px; paint-order: normal; text-decoration: none solid rgb(85, 85, 85);"></path><path class="gnLinks1" d="M80,750L170,750" style="fill: none; stroke: rgb(51, 102, 204); baseline-shift: 0px; paint-order: normal; text-decoration: none solid rgb(85, 85, 85);"></path><path class="gnLinks1" d="M320,1050L555,1050L555,975L580,975" style="fill: none; stroke: rgb(51, 102, 204); baseline-shift: 0px; paint-order: normal; text-decoration: none solid rgb(85, 85, 85);"></path><path class="gnLinks1" d="M320,1050L555,1050L555,1250L580,1250" style="fill: none; stroke: rgb(51, 102, 204); baseline-shift: 0px; paint-order: normal; text-decoration: none solid rgb(85, 85, 85);"></path><path class="gnLinks1" d="M320,550L475,550L475,600L500,600" style="fill: none; stroke: rgb(51, 102, 204); baseline-shift: 0px; paint-order: normal; text-decoration: none solid rgb(85, 85, 85);"></path><path class="gnLinks1" d="M320,550L475,550L475,275L500,275" style="fill: none; stroke: rgb(51, 102, 204); baseline-shift: 0px; paint-order: normal; text-decoration: none solid rgb(85, 85, 85);"></path><path class="gnLinks1" d="M110,775L140,800" style="fill: none; stroke: rgb(51, 102, 204); baseline-shift: 0px; paint-order: normal; text-decoration: none solid rgb(85, 85, 85);"></path><path class="gnLinks1" d="M110,775L170,775" style="fill: none; stroke: rgb(51, 102, 204); baseline-shift: 0px; paint-order: normal; text-decoration: none solid rgb(85, 85, 85);"></path><path class="gnLinks1" d="M170,750L195,750L195,450L320,450" style="fill: none; stroke: rgb(51, 102, 204); baseline-shift: 0px; paint-order: normal; text-decoration: none solid rgb(85, 85, 85);"></path><path class="gnLinks1" d="M170,750L195,750L195,1200L380,1200" style="fill: none; stroke: rgb(51, 102, 204); baseline-shift: 0px; paint-order: normal; text-decoration: none solid rgb(85, 85, 85);"></path><path class="gnLinks1" d="M580,975L610,1000" style="fill: none; stroke: rgb(51, 102, 204); baseline-shift: 0px; paint-order: normal; text-decoration: none solid rgb(85, 85, 85);"></path><path class="gnLinks1" d="M580,975L610,975" style="fill: none; stroke: rgb(51, 102, 204); baseline-shift: 0px; paint-order: normal; text-decoration: none solid rgb(85, 85, 85);"></path><path class="gnLinks1" d="M140,800L170,825" style="fill: none; stroke: rgb(51, 102, 204); baseline-shift: 0px; paint-order: normal; text-decoration: none solid rgb(85, 85, 85);"></path><path class="gnLinks1" d="M140,800L170,800" style="fill: none; stroke: rgb(51, 102, 204); baseline-shift: 0px; paint-order: normal; text-decoration: none solid rgb(85, 85, 85);"></path><path class="gnLinks1" d="M170,775L220,775L220,475L320,475" style="fill: none; stroke: rgb(51, 102, 204); baseline-shift: 0px; paint-order: normal; text-decoration: none solid rgb(85, 85, 85);"></path><path class="gnLinks1" d="M170,775L220,775L220,1175L380,1175" style="fill: none; stroke: rgb(51, 102, 204); baseline-shift: 0px; paint-order: normal; text-decoration: none solid rgb(85, 85, 85);"></path><path class="gnLinks1" d="M320,450L375,450L375,175L500,175" style="fill: none; stroke: rgb(51, 102, 204); baseline-shift: 0px; paint-order: normal; text-decoration: none solid rgb(85, 85, 85);"></path><path class="gnLinks1" d="M320,450L375,450L375,700L500,700" style="fill: none; stroke: rgb(51, 102, 204); baseline-shift: 0px; paint-order: normal; text-decoration: none solid rgb(85, 85, 85);"></path><path class="gnLinks1" d="M170,825L270,825L270,1125L320,1125" style="fill: none; stroke: rgb(51, 102, 204); baseline-shift: 0px; paint-order: normal; text-decoration: none solid rgb(85, 85, 85);"></path><path class="gnLinks1" d="M170,825L270,825L270,525L320,525" style="fill: none; stroke: rgb(51, 102, 204); baseline-shift: 0px; paint-order: normal; text-decoration: none solid rgb(85, 85, 85);"></path><path class="gnLinks1" d="M170,800L245,800L245,500L320,500" style="fill: none; stroke: rgb(51, 102, 204); baseline-shift: 0px; paint-order: normal; text-decoration: none solid rgb(85, 85, 85);"></path><path class="gnLinks1" d="M170,800L245,800L245,1150L380,1150" style="fill: none; stroke: rgb(51, 102, 204); baseline-shift: 0px; paint-order: normal; text-decoration: none solid rgb(85, 85, 85);"></path><path class="gnLinks1" d="M320,475L400,475L400,200L500,200" style="fill: none; stroke: rgb(51, 102, 204); baseline-shift: 0px; paint-order: normal; text-decoration: none solid rgb(85, 85, 85);"></path><path class="gnLinks1" d="M320,475L400,475L400,675L500,675" style="fill: none; stroke: rgb(51, 102, 204); baseline-shift: 0px; paint-order: normal; text-decoration: none solid rgb(85, 85, 85);"></path><path class="gnLinks1" d="M500,175L555,175L555,25L710,25" style="fill: none; stroke: rgb(51, 102, 204); baseline-shift: 0px; paint-order: normal; text-decoration: none solid rgb(85, 85, 85);"></path><path class="gnLinks1" d="M500,175L555,175L555,400L680,400" style="fill: none; stroke: rgb(51, 102, 204); baseline-shift: 0px; paint-order: normal; text-decoration: none solid rgb(85, 85, 85);"></path><path class="gnLinks1" d="M320,1125L350,1100" style="fill: none; stroke: rgb(51, 102, 204); baseline-shift: 0px; paint-order: normal; text-decoration: none solid rgb(85, 85, 85);"></path><path class="gnLinks1" d="M320,1125L380,1125" style="fill: none; stroke: rgb(51, 102, 204); baseline-shift: 0px; paint-order: normal; text-decoration: none solid rgb(85, 85, 85);"></path><path class="gnLinks1" d="M320,525L450,525L450,250L500,250" style="fill: none; stroke: rgb(51, 102, 204); baseline-shift: 0px; paint-order: normal; text-decoration: none solid rgb(85, 85, 85);"></path><path class="gnLinks1" d="M320,525L450,525L450,625L500,625" style="fill: none; stroke: rgb(51, 102, 204); baseline-shift: 0px; paint-order: normal; text-decoration: none solid rgb(85, 85, 85);"></path><path class="gnLinks1" d="M320,500L425,500L425,225L500,225" style="fill: none; stroke: rgb(51, 102, 204); baseline-shift: 0px; paint-order: normal; text-decoration: none solid rgb(85, 85, 85);"></path><path class="gnLinks1" d="M320,500L425,500L425,650L500,650" style="fill: none; stroke: rgb(51, 102, 204); baseline-shift: 0px; paint-order: normal; text-decoration: none solid rgb(85, 85, 85);"></path><path class="gnLinks1" d="M500,200L580,200L580,375L680,375" style="fill: none; stroke: rgb(51, 102, 204); baseline-shift: 0px; paint-order: normal; text-decoration: none solid rgb(85, 85, 85);"></path><path class="gnLinks1" d="M500,200L580,200L580,50L710,50" style="fill: none; stroke: rgb(51, 102, 204); baseline-shift: 0px; paint-order: normal; text-decoration: none solid rgb(85, 85, 85);"></path><path class="gnLinks1" d="M350,1100L380,1075" style="fill: none; stroke: rgb(51, 102, 204); baseline-shift: 0px; paint-order: normal; text-decoration: none solid rgb(85, 85, 85);"></path><path class="gnLinks1" d="M350,1100L380,1100" style="fill: none; stroke: rgb(51, 102, 204); baseline-shift: 0px; paint-order: normal; text-decoration: none solid rgb(85, 85, 85);"></path><path class="gnLinks1" d="M380,1125L480,1125L480,900L610,900" style="fill: none; stroke: rgb(51, 102, 204); baseline-shift: 0px; paint-order: normal; text-decoration: none solid rgb(85, 85, 85);"></path><path class="gnLinks1" d="M380,1125L480,1125L480,1375L640,1375" style="fill: none; stroke: rgb(51, 102, 204); baseline-shift: 0px; paint-order: normal; text-decoration: none solid rgb(85, 85, 85);"></path><path class="gnLinks1" d="M500,250L630,250L630,125L680,125" style="fill: none; stroke: rgb(51, 102, 204); baseline-shift: 0px; paint-order: normal; text-decoration: none solid rgb(85, 85, 85);"></path><path class="gnLinks1" d="M500,250L630,250L630,325L680,325" style="fill: none; stroke: rgb(51, 102, 204); baseline-shift: 0px; paint-order: normal; text-decoration: none solid rgb(85, 85, 85);"></path><path class="gnLinks1" d="M500,225L605,225L605,75L680,75" style="fill: none; stroke: rgb(51, 102, 204); baseline-shift: 0px; paint-order: normal; text-decoration: none solid rgb(85, 85, 85);"></path><path class="gnLinks1" d="M500,225L605,225L605,350L680,350" style="fill: none; stroke: rgb(51, 102, 204); baseline-shift: 0px; paint-order: normal; text-decoration: none solid rgb(85, 85, 85);"></path><path class="gnLinks1" d="M380,1075L530,1075L530,950L610,950" style="fill: none; stroke: rgb(51, 102, 204); baseline-shift: 0px; paint-order: normal; text-decoration: none solid rgb(85, 85, 85);"></path><path class="gnLinks1" d="M380,1075L530,1075L530,1275L580,1275" style="fill: none; stroke: rgb(51, 102, 204); baseline-shift: 0px; paint-order: normal; text-decoration: none solid rgb(85, 85, 85);"></path><path class="gnLinks1" d="M380,1100L505,1100L505,1350L580,1350" style="fill: none; stroke: rgb(51, 102, 204); baseline-shift: 0px; paint-order: normal; text-decoration: none solid rgb(85, 85, 85);"></path><path class="gnLinks1" d="M380,1100L505,1100L505,925L610,925" style="fill: none; stroke: rgb(51, 102, 204); baseline-shift: 0px; paint-order: normal; text-decoration: none solid rgb(85, 85, 85);"></path><path class="gnLinks1" d="M680,75L710,100" style="fill: none; stroke: rgb(51, 102, 204); baseline-shift: 0px; paint-order: normal; text-decoration: none solid rgb(85, 85, 85);"></path><path class="gnLinks1" d="M680,75L710,75" style="fill: none; stroke: rgb(51, 102, 204); baseline-shift: 0px; paint-order: normal; text-decoration: none solid rgb(85, 85, 85);"></path><path class="gnLinks1" d="M580,1350L610,1325" style="fill: none; stroke: rgb(51, 102, 204); baseline-shift: 0px; paint-order: normal; text-decoration: none solid rgb(85, 85, 85);"></path><path class="gnLinks1" d="M580,1350L640,1350" style="fill: none; stroke: rgb(51, 102, 204); baseline-shift: 0px; paint-order: normal; text-decoration: none solid rgb(85, 85, 85);"></path><path class="gnLinks1" d="M610,1325L640,1300" style="fill: none; stroke: rgb(51, 102, 204); baseline-shift: 0px; paint-order: normal; text-decoration: none solid rgb(85, 85, 85);"></path><path class="gnLinks1" d="M610,1325L640,1325" style="fill: none; stroke: rgb(51, 102, 204); baseline-shift: 0px; paint-order: normal; text-decoration: none solid rgb(85, 85, 85);"></path><path class="gnLeaves1" d="M610,1000L770,1000" style="fill: none; stroke: rgb(51, 102, 204); baseline-shift: 0px; paint-order: normal; text-decoration: none solid rgb(85, 85, 85);"></path><path class="gnLeaves1" d="M610,975L770,975" style="fill: none; stroke: rgb(51, 102, 204); baseline-shift: 0px; paint-order: normal; text-decoration: none solid rgb(85, 85, 85);"></path><path class="gnLeaves1" d="M500,600L770,600" style="fill: none; stroke: rgb(51, 102, 204); baseline-shift: 0px; paint-order: normal; text-decoration: none solid rgb(85, 85, 85);"></path><path class="gnLeaves1" d="M610,950L770,950" style="fill: none; stroke: rgb(51, 102, 204); baseline-shift: 0px; paint-order: normal; text-decoration: none solid rgb(85, 85, 85);"></path><path class="gnLeaves1" d="M580,1275L770,1275" style="fill: none; stroke: rgb(51, 102, 204); baseline-shift: 0px; paint-order: normal; text-decoration: none solid rgb(85, 85, 85);"></path><path class="gnLeaves1" d="M640,1300L770,1300" style="fill: none; stroke: rgb(51, 102, 204); baseline-shift: 0px; paint-order: normal; text-decoration: none solid rgb(85, 85, 85);"></path><path class="gnLeaves1" d="M640,1325L770,1325" style="fill: none; stroke: rgb(51, 102, 204); baseline-shift: 0px; paint-order: normal; text-decoration: none solid rgb(85, 85, 85);"></path><path class="gnLeaves1" d="M640,1350L770,1350" style="fill: none; stroke: rgb(51, 102, 204); baseline-shift: 0px; paint-order: normal; text-decoration: none solid rgb(85, 85, 85);"></path><path class="gnLeaves1" d="M610,900L770,900" style="fill: none; stroke: rgb(51, 102, 204); baseline-shift: 0px; paint-order: normal; text-decoration: none solid rgb(85, 85, 85);"></path><path class="gnLeaves1" d="M680,125L770,125" style="fill: none; stroke: rgb(51, 102, 204); baseline-shift: 0px; paint-order: normal; text-decoration: none solid rgb(85, 85, 85);"></path><path class="gnLeaves1" d="M710,100L770,100" style="fill: none; stroke: rgb(51, 102, 204); baseline-shift: 0px; paint-order: normal; text-decoration: none solid rgb(85, 85, 85);"></path><path class="gnLeaves1" d="M710,75L770,75" style="fill: none; stroke: rgb(51, 102, 204); baseline-shift: 0px; paint-order: normal; text-decoration: none solid rgb(85, 85, 85);"></path><path class="gnLeaves1" d="M680,375L770,375" style="fill: none; stroke: rgb(51, 102, 204); baseline-shift: 0px; paint-order: normal; text-decoration: none solid rgb(85, 85, 85);"></path><path class="gnLeaves1" d="M710,25L770,25" style="fill: none; stroke: rgb(51, 102, 204); baseline-shift: 0px; paint-order: normal; text-decoration: none solid rgb(85, 85, 85);"></path><g class="gnLosses1" transform="translate(580,1250)rotate(45)" style="baseline-shift: 0px; paint-order: normal; text-decoration: none solid rgb(85, 85, 85);"><path d="M-10.73312629199899,-3.5777087639996634L-3.5777087639996634,-3.5777087639996634L-3.5777087639996634,-10.73312629199899L3.5777087639996634,-10.73312629199899L3.5777087639996634,-3.5777087639996634L10.73312629199899,-3.5777087639996634L10.73312629199899,3.5777087639996634L3.5777087639996634,3.5777087639996634L3.5777087639996634,10.73312629199899L-3.5777087639996634,10.73312629199899L-3.5777087639996634,3.5777087639996634L-10.73312629199899,3.5777087639996634Z" style="fill: rgb(255, 255, 255); stroke: rgb(51, 102, 204); baseline-shift: 0px; paint-order: normal; text-decoration: none solid rgb(85, 85, 85);"></path></g><g class="gnLosses1" transform="translate(500,275)rotate(45)" style="baseline-shift: 0px; paint-order: normal; text-decoration: none solid rgb(85, 85, 85);"><path d="M-10.73312629199899,-3.5777087639996634L-3.5777087639996634,-3.5777087639996634L-3.5777087639996634,-10.73312629199899L3.5777087639996634,-10.73312629199899L3.5777087639996634,-3.5777087639996634L10.73312629199899,-3.5777087639996634L10.73312629199899,3.5777087639996634L3.5777087639996634,3.5777087639996634L3.5777087639996634,10.73312629199899L-3.5777087639996634,10.73312629199899L-3.5777087639996634,3.5777087639996634L-10.73312629199899,3.5777087639996634Z" style="fill: rgb(255, 255, 255); stroke: rgb(51, 102, 204); baseline-shift: 0px; paint-order: normal; text-decoration: none solid rgb(85, 85, 85);"></path></g><g class="gnLosses1" transform="translate(610,925)rotate(45)" style="baseline-shift: 0px; paint-order: normal; text-decoration: none solid rgb(85, 85, 85);"><path d="M-10.73312629199899,-3.5777087639996634L-3.5777087639996634,-3.5777087639996634L-3.5777087639996634,-10.73312629199899L3.5777087639996634,-10.73312629199899L3.5777087639996634,-3.5777087639996634L10.73312629199899,-3.5777087639996634L10.73312629199899,3.5777087639996634L3.5777087639996634,3.5777087639996634L3.5777087639996634,10.73312629199899L-3.5777087639996634,10.73312629199899L-3.5777087639996634,3.5777087639996634L-10.73312629199899,3.5777087639996634Z" style="fill: rgb(255, 255, 255); stroke: rgb(51, 102, 204); baseline-shift: 0px; paint-order: normal; text-decoration: none solid rgb(85, 85, 85);"></path></g><g class="gnLosses1" transform="translate(640,1375)rotate(45)" style="baseline-shift: 0px; paint-order: normal; text-decoration: none solid rgb(85, 85, 85);"><path d="M-10.73312629199899,-3.5777087639996634L-3.5777087639996634,-3.5777087639996634L-3.5777087639996634,-10.73312629199899L3.5777087639996634,-10.73312629199899L3.5777087639996634,-3.5777087639996634L10.73312629199899,-3.5777087639996634L10.73312629199899,3.5777087639996634L3.5777087639996634,3.5777087639996634L3.5777087639996634,10.73312629199899L-3.5777087639996634,10.73312629199899L-3.5777087639996634,3.5777087639996634L-10.73312629199899,3.5777087639996634Z" style="fill: rgb(255, 255, 255); stroke: rgb(51, 102, 204); baseline-shift: 0px; paint-order: normal; text-decoration: none solid rgb(85, 85, 85);"></path></g><g class="gnLosses1" transform="translate(680,325)rotate(45)" style="baseline-shift: 0px; paint-order: normal; text-decoration: none solid rgb(85, 85, 85);"><path d="M-10.73312629199899,-3.5777087639996634L-3.5777087639996634,-3.5777087639996634L-3.5777087639996634,-10.73312629199899L3.5777087639996634,-10.73312629199899L3.5777087639996634,-3.5777087639996634L10.73312629199899,-3.5777087639996634L10.73312629199899,3.5777087639996634L3.5777087639996634,3.5777087639996634L3.5777087639996634,10.73312629199899L-3.5777087639996634,10.73312629199899L-3.5777087639996634,3.5777087639996634L-10.73312629199899,3.5777087639996634Z" style="fill: rgb(255, 255, 255); stroke: rgb(51, 102, 204); baseline-shift: 0px; paint-order: normal; text-decoration: none solid rgb(85, 85, 85);"></path></g><g class="gnLosses1" transform="translate(500,625)rotate(45)" style="baseline-shift: 0px; paint-order: normal; text-decoration: none solid rgb(85, 85, 85);"><path d="M-10.73312629199899,-3.5777087639996634L-3.5777087639996634,-3.5777087639996634L-3.5777087639996634,-10.73312629199899L3.5777087639996634,-10.73312629199899L3.5777087639996634,-3.5777087639996634L10.73312629199899,-3.5777087639996634L10.73312629199899,3.5777087639996634L3.5777087639996634,3.5777087639996634L3.5777087639996634,10.73312629199899L-3.5777087639996634,10.73312629199899L-3.5777087639996634,3.5777087639996634L-10.73312629199899,3.5777087639996634Z" style="fill: rgb(255, 255, 255); stroke: rgb(51, 102, 204); baseline-shift: 0px; paint-order: normal; text-decoration: none solid rgb(85, 85, 85);"></path></g><g class="gnLosses1" transform="translate(680,350)rotate(45)" style="baseline-shift: 0px; paint-order: normal; text-decoration: none solid rgb(85, 85, 85);"><path d="M-10.73312629199899,-3.5777087639996634L-3.5777087639996634,-3.5777087639996634L-3.5777087639996634,-10.73312629199899L3.5777087639996634,-10.73312629199899L3.5777087639996634,-3.5777087639996634L10.73312629199899,-3.5777087639996634L10.73312629199899,3.5777087639996634L3.5777087639996634,3.5777087639996634L3.5777087639996634,10.73312629199899L-3.5777087639996634,10.73312629199899L-3.5777087639996634,3.5777087639996634L-10.73312629199899,3.5777087639996634Z" style="fill: rgb(255, 255, 255); stroke: rgb(51, 102, 204); baseline-shift: 0px; paint-order: normal; text-decoration: none solid rgb(85, 85, 85);"></path></g><g class="gnLosses1" transform="translate(500,650)rotate(45)" style="baseline-shift: 0px; paint-order: normal; text-decoration: none solid rgb(85, 85, 85);"><path d="M-10.73312629199899,-3.5777087639996634L-3.5777087639996634,-3.5777087639996634L-3.5777087639996634,-10.73312629199899L3.5777087639996634,-10.73312629199899L3.5777087639996634,-3.5777087639996634L10.73312629199899,-3.5777087639996634L10.73312629199899,3.5777087639996634L3.5777087639996634,3.5777087639996634L3.5777087639996634,10.73312629199899L-3.5777087639996634,10.73312629199899L-3.5777087639996634,3.5777087639996634L-10.73312629199899,3.5777087639996634Z" style="fill: rgb(255, 255, 255); stroke: rgb(51, 102, 204); baseline-shift: 0px; paint-order: normal; text-decoration: none solid rgb(85, 85, 85);"></path></g><g class="gnLosses1" transform="translate(380,1150)rotate(45)" style="baseline-shift: 0px; paint-order: normal; text-decoration: none solid rgb(85, 85, 85);"><path d="M-10.73312629199899,-3.5777087639996634L-3.5777087639996634,-3.5777087639996634L-3.5777087639996634,-10.73312629199899L3.5777087639996634,-10.73312629199899L3.5777087639996634,-3.5777087639996634L10.73312629199899,-3.5777087639996634L10.73312629199899,3.5777087639996634L3.5777087639996634,3.5777087639996634L3.5777087639996634,10.73312629199899L-3.5777087639996634,10.73312629199899L-3.5777087639996634,3.5777087639996634L-10.73312629199899,3.5777087639996634Z" style="fill: rgb(255, 255, 255); stroke: rgb(51, 102, 204); baseline-shift: 0px; paint-order: normal; text-decoration: none solid rgb(85, 85, 85);"></path></g><g class="gnLosses1" transform="translate(710,50)rotate(45)" style="baseline-shift: 0px; paint-order: normal; text-decoration: none solid rgb(85, 85, 85);"><path d="M-10.73312629199899,-3.5777087639996634L-3.5777087639996634,-3.5777087639996634L-3.5777087639996634,-10.73312629199899L3.5777087639996634,-10.73312629199899L3.5777087639996634,-3.5777087639996634L10.73312629199899,-3.5777087639996634L10.73312629199899,3.5777087639996634L3.5777087639996634,3.5777087639996634L3.5777087639996634,10.73312629199899L-3.5777087639996634,10.73312629199899L-3.5777087639996634,3.5777087639996634L-10.73312629199899,3.5777087639996634Z" style="fill: rgb(255, 255, 255); stroke: rgb(51, 102, 204); baseline-shift: 0px; paint-order: normal; text-decoration: none solid rgb(85, 85, 85);"></path></g><g class="gnLosses1" transform="translate(500,675)rotate(45)" style="baseline-shift: 0px; paint-order: normal; text-decoration: none solid rgb(85, 85, 85);"><path d="M-10.73312629199899,-3.5777087639996634L-3.5777087639996634,-3.5777087639996634L-3.5777087639996634,-10.73312629199899L3.5777087639996634,-10.73312629199899L3.5777087639996634,-3.5777087639996634L10.73312629199899,-3.5777087639996634L10.73312629199899,3.5777087639996634L3.5777087639996634,3.5777087639996634L3.5777087639996634,10.73312629199899L-3.5777087639996634,10.73312629199899L-3.5777087639996634,3.5777087639996634L-10.73312629199899,3.5777087639996634Z" style="fill: rgb(255, 255, 255); stroke: rgb(51, 102, 204); baseline-shift: 0px; paint-order: normal; text-decoration: none solid rgb(85, 85, 85);"></path></g><g class="gnLosses1" transform="translate(380,1175)rotate(45)" style="baseline-shift: 0px; paint-order: normal; text-decoration: none solid rgb(85, 85, 85);"><path d="M-10.73312629199899,-3.5777087639996634L-3.5777087639996634,-3.5777087639996634L-3.5777087639996634,-10.73312629199899L3.5777087639996634,-10.73312629199899L3.5777087639996634,-3.5777087639996634L10.73312629199899,-3.5777087639996634L10.73312629199899,3.5777087639996634L3.5777087639996634,3.5777087639996634L3.5777087639996634,10.73312629199899L-3.5777087639996634,10.73312629199899L-3.5777087639996634,3.5777087639996634L-10.73312629199899,3.5777087639996634Z" style="fill: rgb(255, 255, 255); stroke: rgb(51, 102, 204); baseline-shift: 0px; paint-order: normal; text-decoration: none solid rgb(85, 85, 85);"></path></g><g class="gnLosses1" transform="translate(680,400)rotate(45)" style="baseline-shift: 0px; paint-order: normal; text-decoration: none solid rgb(85, 85, 85);"><path d="M-10.73312629199899,-3.5777087639996634L-3.5777087639996634,-3.5777087639996634L-3.5777087639996634,-10.73312629199899L3.5777087639996634,-10.73312629199899L3.5777087639996634,-3.5777087639996634L10.73312629199899,-3.5777087639996634L10.73312629199899,3.5777087639996634L3.5777087639996634,3.5777087639996634L3.5777087639996634,10.73312629199899L-3.5777087639996634,10.73312629199899L-3.5777087639996634,3.5777087639996634L-10.73312629199899,3.5777087639996634Z" style="fill: rgb(255, 255, 255); stroke: rgb(51, 102, 204); baseline-shift: 0px; paint-order: normal; text-decoration: none solid rgb(85, 85, 85);"></path></g><g class="gnLosses1" transform="translate(500,700)rotate(45)" style="baseline-shift: 0px; paint-order: normal; text-decoration: none solid rgb(85, 85, 85);"><path d="M-10.73312629199899,-3.5777087639996634L-3.5777087639996634,-3.5777087639996634L-3.5777087639996634,-10.73312629199899L3.5777087639996634,-10.73312629199899L3.5777087639996634,-3.5777087639996634L10.73312629199899,-3.5777087639996634L10.73312629199899,3.5777087639996634L3.5777087639996634,3.5777087639996634L3.5777087639996634,10.73312629199899L-3.5777087639996634,10.73312629199899L-3.5777087639996634,3.5777087639996634L-10.73312629199899,3.5777087639996634Z" style="fill: rgb(255, 255, 255); stroke: rgb(51, 102, 204); baseline-shift: 0px; paint-order: normal; text-decoration: none solid rgb(85, 85, 85);"></path></g><g class="gnLosses1" transform="translate(380,1200)rotate(45)" style="baseline-shift: 0px; paint-order: normal; text-decoration: none solid rgb(85, 85, 85);"><path d="M-10.73312629199899,-3.5777087639996634L-3.5777087639996634,-3.5777087639996634L-3.5777087639996634,-10.73312629199899L3.5777087639996634,-10.73312629199899L3.5777087639996634,-3.5777087639996634L10.73312629199899,-3.5777087639996634L10.73312629199899,3.5777087639996634L3.5777087639996634,3.5777087639996634L3.5777087639996634,10.73312629199899L-3.5777087639996634,10.73312629199899L-3.5777087639996634,3.5777087639996634L-10.73312629199899,3.5777087639996634Z" style="fill: rgb(255, 255, 255); stroke: rgb(51, 102, 204); baseline-shift: 0px; paint-order: normal; text-decoration: none solid rgb(85, 85, 85);"></path></g><g transform="translate(50,750)" style="baseline-shift: 0px; paint-order: normal; text-decoration: none solid rgb(85, 85, 85);"><path class="duplication1" d="M-8,-8h16v16h-16Z" style="fill: rgb(255, 255, 255); stroke: rgb(51, 102, 204); baseline-shift: 0px; paint-order: normal; text-decoration: none solid rgb(85, 85, 85);"></path></g><g transform="translate(80,750)" style="baseline-shift: 0px; paint-order: normal; text-decoration: none solid rgb(85, 85, 85);"><path class="duplication1" d="M-8,-8h16v16h-16Z" style="fill: rgb(255, 255, 255); stroke: rgb(51, 102, 204); baseline-shift: 0px; paint-order: normal; text-decoration: none solid rgb(85, 85, 85);"></path></g><g transform="translate(110,775)" style="baseline-shift: 0px; paint-order: normal; text-decoration: none solid rgb(85, 85, 85);"><path class="duplication1" d="M-8,-8h16v16h-16Z" style="fill: rgb(255, 255, 255); stroke: rgb(51, 102, 204); baseline-shift: 0px; paint-order: normal; text-decoration: none solid rgb(85, 85, 85);"></path></g><g transform="translate(580,975)" style="baseline-shift: 0px; paint-order: normal; text-decoration: none solid rgb(85, 85, 85);"><path class="duplication1" d="M-8,-8h16v16h-16Z" style="fill: rgb(255, 255, 255); stroke: rgb(51, 102, 204); baseline-shift: 0px; paint-order: normal; text-decoration: none solid rgb(85, 85, 85);"></path></g><g transform="translate(140,800)" style="baseline-shift: 0px; paint-order: normal; text-decoration: none solid rgb(85, 85, 85);"><path class="duplication1" d="M-8,-8h16v16h-16Z" style="fill: rgb(255, 255, 255); stroke: rgb(51, 102, 204); baseline-shift: 0px; paint-order: normal; text-decoration: none solid rgb(85, 85, 85);"></path></g><g transform="translate(320,1125)" style="baseline-shift: 0px; paint-order: normal; text-decoration: none solid rgb(85, 85, 85);"><path class="duplication1" d="M-8,-8h16v16h-16Z" style="fill: rgb(255, 255, 255); stroke: rgb(51, 102, 204); baseline-shift: 0px; paint-order: normal; text-decoration: none solid rgb(85, 85, 85);"></path></g><g transform="translate(350,1100)" style="baseline-shift: 0px; paint-order: normal; text-decoration: none solid rgb(85, 85, 85);"><path class="duplication1" d="M-8,-8h16v16h-16Z" style="fill: rgb(255, 255, 255); stroke: rgb(51, 102, 204); baseline-shift: 0px; paint-order: normal; text-decoration: none solid rgb(85, 85, 85);"></path></g><g transform="translate(680,75)" style="baseline-shift: 0px; paint-order: normal; text-decoration: none solid rgb(85, 85, 85);"><path class="duplication1" d="M-8,-8h16v16h-16Z" style="fill: rgb(255, 255, 255); stroke: rgb(51, 102, 204); baseline-shift: 0px; paint-order: normal; text-decoration: none solid rgb(85, 85, 85);"></path></g><g transform="translate(580,1350)" style="baseline-shift: 0px; paint-order: normal; text-decoration: none solid rgb(85, 85, 85);"><path class="duplication1" d="M-8,-8h16v16h-16Z" style="fill: rgb(255, 255, 255); stroke: rgb(51, 102, 204); baseline-shift: 0px; paint-order: normal; text-decoration: none solid rgb(85, 85, 85);"></path></g><g transform="translate(610,1325)" style="baseline-shift: 0px; paint-order: normal; text-decoration: none solid rgb(85, 85, 85);"><path class="duplication1" d="M-8,-8h16v16h-16Z" style="fill: rgb(255, 255, 255); stroke: rgb(51, 102, 204); baseline-shift: 0px; paint-order: normal; text-decoration: none solid rgb(85, 85, 85);"></path></g><g transform="translate(50,750)rotate(90)" style="baseline-shift: 0px; paint-order: normal; text-decoration: none solid rgb(85, 85, 85);"><path class="root1" d="M0,-15.101263239593468L3.3904448381351644,-4.666546977564055L14.362154808303828,-4.666546977564056L5.485854985084331,1.7824623353313758L8.8762998232195,12.217178597360787L8.881784197001252e-16,5.768169284465358L-8.876299823219496,12.217178597360789L-5.485854985084332,1.7824623353313764L-14.36215480830383,-4.666546977564052L-3.3904448381351657,-4.666546977564054Z" style="fill: rgb(255, 255, 255); stroke: rgb(51, 102, 204); baseline-shift: 0px; paint-order: normal; text-decoration: none solid rgb(85, 85, 85);"></path></g></g></g></svg>